<?xml version="1.0" encoding="UTF-8" standalone="no"?>
<!-- Created with Inkscape (http://www.inkscape.org/) -->

<svg
   xmlns:dc="http://purl.org/dc/elements/1.1/"
   xmlns:cc="http://creativecommons.org/ns#"
   xmlns:rdf="http://www.w3.org/1999/02/22-rdf-syntax-ns#"
   xmlns:svg="http://www.w3.org/2000/svg"
   xmlns="http://www.w3.org/2000/svg"
   xmlns:sodipodi="http://sodipodi.sourceforge.net/DTD/sodipodi-0.dtd"
   xmlns:inkscape="http://www.inkscape.org/namespaces/inkscape"
   width="210mm"
   height="297mm"
   viewBox="0 0 210 297"
   version="1.1"
   id="svg7450"
   inkscape:version="0.92.3 (2405546, 2018-03-11)"
   sodipodi:docname="points_popup.svg">
  <defs
     id="defs7444" />
  <sodipodi:namedview
     id="base"
     pagecolor="#ffffff"
     bordercolor="#666666"
     borderopacity="1.0"
     inkscape:pageopacity="0.0"
     inkscape:pageshadow="2"
     inkscape:zoom="0.04375"
     inkscape:cx="1996.3341"
     inkscape:cy="-1458.8258"
     inkscape:document-units="mm"
     inkscape:current-layer="layer1"
     showgrid="false"
     inkscape:window-width="1366"
     inkscape:window-height="745"
     inkscape:window-x="-8"
     inkscape:window-y="-8"
     inkscape:window-maximized="1" />
  <metadata
     id="metadata7447">
    <rdf:RDF>
      <cc:Work
         rdf:about="">
        <dc:format>image/svg+xml</dc:format>
        <dc:type
           rdf:resource="http://purl.org/dc/dcmitype/StillImage" />
        <dc:title></dc:title>
      </cc:Work>
    </rdf:RDF>
  </metadata>
  <g
     inkscape:label="Layer 1"
     inkscape:groupmode="layer"
     id="layer1">
    <g
       id="g7947"
       transform="translate(1324.4286,-296.33334)">
      <path
         sodipodi:nodetypes="sscssscssscssscssscssscssscssscss"
         inkscape:connector-curvature="0"
         id="path7454"
         d="m -478.80126,233.44153 c -34.28027,15.21645 -15.38479,-39.95528 -51.97964,-30.94683 -36.59484,9.00845 -28.41389,33.42463 -28.41389,33.42463 0,0 -5.2518,-29.07934 -41.92841,-32.27958 -38.83335,-3.38843 -31.75705,56.89342 -62.40059,51.8735 -45.95633,-7.52841 8.65533,-50.57711 -6.64707,-78.81068 -17.53795,-32.35826 -73.286,31.88763 -73.286,31.88763 0,0 42.7846,-46.23242 20.19729,-75.51305 -22.58731,-29.28061 -55.85229,27.48331 -72.28714,-5.70131 -16.43487,-33.184644 49.46788,-24.7106 39.872,-60.351304 -9.59587,-35.64069 -37.93938,-36.55929 -37.93938,-36.55929 0,0 34.4349,5.36589 40.06761,-31.9163901 5.63271,-37.2822699 -84.72001,-32.2487799 -71.82355,-66.6993969 12.89646,-34.450629 69.66135,26.835199 88.12208,-5.576682 18.46073,-32.411867 -25.31212,-67.082387 -25.31212,-67.082387 0,0 40.06414,35.2412 69.17016,11.77595 29.10601,-23.46523 -58.11514,-76.11513 -24.7025,-92.43879 33.41265,-16.32365 65.0033,74.57926 100.35982,64.18972 35.3565,-10.38952 33.95725,-65.97965 33.95725,-65.97965 0,0 -8.38803,67.17665 28.85421,70.74245 37.24223,3.5658 39.59037,-88.0395 73.7827,-73.74549 46.0475,19.25002 -23.75007,76.87771 2.7826,93.66698 31.24194,19.76919 53.40638,-11.06417 53.40638,-11.06417 0,0 -26.26742,25.90587 -4.76348,57.006416 21.50393,31.100531 60.59339,-35.554806 76.98288,-1.552077 16.3895,34.002746 -62.28938,27.489934 -52.07218,62.904247 10.08882,34.9693599 88.6081,4.69614 38.84189,34.5558699 0,0 -27.98885,-0.58564 -33.03013,36.7070801 -5.04128,37.29271 101.06857,35.66762 88.70442,70.306814 -12.36414,34.6392 -95.56452,-27.327094 -113.64747,4.97906 -18.08294,32.30614 8.7628,50.12827 8.7628,50.12827 0,0 -28.67916,-18.99948 -57.7028,4.17179 -29.02363,23.17127 28.35251,42.68023 -5.92774,57.89667 z"
         inkscape:transform-center-y="1.4339472"
         inkscape:transform-center-x="-1.7075372"
         style="opacity:0.86400003;fill:#102f91;fill-opacity:1;fill-rule:evenodd;stroke:none;stroke-width:5.26499987;stroke-linecap:round;stroke-linejoin:round;stroke-miterlimit:4;stroke-dasharray:none;stroke-dashoffset:0;stroke-opacity:1" />
      <g
         id="flowRoot7498"
         style="font-style:normal;font-weight:normal;font-size:40px;line-height:1.25;font-family:sans-serif;letter-spacing:0px;word-spacing:0px;fill:#000000;fill-opacity:1;stroke:none"
         transform="matrix(4.4145927,0,0,4.4145927,8146.0359,-6962.7364)"
         aria-label="10">
        <path
           id="path7836"
           d="m -1982.9707,1595.3995 h -15.7422 v -2.9688 h 6.0547 v -19.4922 h -6.0547 v -2.6562 q 1.2305,0 2.6367,-0.1953 1.4063,-0.2149 2.1289,-0.6055 0.8985,-0.4883 1.4063,-1.2305 0.5273,-0.7617 0.6055,-2.0312 h 3.0273 v 26.2109 h 5.9375 z"
           inkscape:connector-curvature="0" />
        <path
           id="path7838"
           d="m -1966.2598,1565.7344 c -2.7951,-0.01 -5.6962,1.194 -7.2323,3.6146 -2.1144,3.2719 -2.421,7.3097 -2.5042,11.1037 0.013,3.9038 0.2395,8.0219 2.1915,11.5021 1.3524,2.454 4.082,3.8804 6.8311,4.0115 2.9728,0.2634 6.2812,-0.5315 8.1769,-2.9964 2.1714,-2.8028 2.6516,-6.4782 2.862,-9.9137 0.1439,-4.1407 0.043,-8.4665 -1.6807,-12.3096 -1.0377,-2.3967 -3.2144,-4.2838 -5.8072,-4.7626 -0.9306,-0.2015 -1.8864,-0.2678 -2.8371,-0.2496 z m 0.5489,3.2226 c 6.117,0.2453 5.8518,7.8641 5.8621,12.3337 -0.084,3.0639 -0.034,6.3166 -1.5058,9.0976 -0.9707,1.8685 -3.2132,2.5829 -5.2004,2.3719 -1.8677,-0.023 -3.5927,-1.2245 -4.2818,-2.9571 -1.3141,-2.9769 -1.1397,-6.3139 -1.1931,-9.4948 0.1047,-2.9098 0.019,-5.9844 1.3326,-8.6618 0.7941,-1.6881 2.6057,-2.7077 4.4478,-2.6858 0.1793,-0.01 0.3591,-0.01 0.5386,0 z"
           inkscape:connector-curvature="0" />
      </g>
    </g>
    <g
       id="g7954"
       inkscape:export-xdpi="24.548237"
       inkscape:export-ydpi="24.548237">
      <path
         sodipodi:nodetypes="sscssscssscssscssscssscssscssscss"
         inkscape:connector-curvature="0"
         id="path7454-0"
         d="m -605.74471,715.27538 c -34.28029,15.21645 -15.38481,-39.95529 -51.97965,-30.94683 -36.59485,9.00845 -28.41389,33.42463 -28.41389,33.42463 0,0 -5.25181,-29.07933 -41.92842,-32.27957 -38.83335,-3.38844 -31.75705,56.89341 -62.40059,51.8735 -45.95633,-7.52841 8.65533,-50.57712 -6.64707,-78.81067 -17.53795,-32.35828 -73.28599,31.88761 -73.28599,31.88761 0,0 42.78459,-46.23242 20.19728,-75.51304 -22.5873,-29.28062 -55.85229,27.4833 -72.28714,-5.70132 -16.43487,-33.18465 49.46789,-24.7106 39.872,-60.3513 -9.59586,-35.64069 -37.93938,-36.55929 -37.93938,-36.55929 0,0 34.43491,5.36589 40.06762,-31.91639 5.6327,-37.28227 -84.72002,-32.24878 -71.82356,-66.6994 12.89646,-34.45063 69.66135,26.8352 88.12208,-5.57668 18.46073,-32.41187 -25.31211,-67.08239 -25.31211,-67.08239 0,0 40.06413,35.2412 69.17015,11.77595 29.10601,-23.46523 -58.11513,-76.11513 -24.7025,-92.43879 33.41265,-16.32365 65.0033,74.57926 100.35982,64.18972 35.3565,-10.38952 33.95725,-65.97965 33.95725,-65.97965 0,0 -8.38803,67.17665 28.85421,70.74245 37.24222,3.5658 39.59037,-88.0395 73.78272,-73.74549 46.04747,19.25002 -23.75009,76.87771 2.78259,93.66698 31.24192,19.76919 53.40639,-11.06417 53.40639,-11.06417 0,0 -26.26744,25.90587 -4.76351,57.00642 21.50393,31.10053 60.5934,-35.55481 76.9829,-1.55208 16.38949,34.00275 -62.28939,27.48994 -52.07219,62.90425 10.08883,34.96936 88.60811,4.69614 38.84189,34.55587 0,0 -27.98884,-0.58564 -33.03013,36.70707 -5.04127,37.29273 101.06858,35.66763 88.70442,70.30683 -12.36414,34.63919 -95.56451,-27.3271 -113.64746,4.97906 -18.08295,32.30613 8.76279,50.12827 8.76279,50.12827 0,0 -28.67914,-18.99949 -57.7028,4.17179 -29.02363,23.17126 28.35251,42.68023 -5.92772,57.89666 z"
         inkscape:transform-center-y="1.4339472"
         inkscape:transform-center-x="-1.7075372"
         style="opacity:0.952;fill:#102f91;fill-opacity:1;fill-rule:evenodd;stroke:none;stroke-width:5.26499987;stroke-linecap:round;stroke-linejoin:round;stroke-miterlimit:4;stroke-dasharray:none;stroke-dashoffset:0;stroke-opacity:1" />
      <flowRoot
         transform="matrix(4.4145928,0,0,4.4145928,8039.1038,-6482.9978)"
         style="font-style:normal;font-weight:normal;font-size:40px;line-height:1.25;font-family:sans-serif;letter-spacing:0px;word-spacing:0px;opacity:0.95200004;fill:#000000;fill-opacity:1;stroke:none"
         id="flowRoot7498-0"
         xml:space="preserve"><flowRegion
           id="flowRegion7500-3"><rect
             y="1558.9055"
             x="-2004.1427"
             height="347.49246"
             width="323.24881"
             id="rect7502-3" /></flowRegion><flowPara
           id="flowPara7504-2">20</flowPara></flowRoot>    </g>
    <g
       id="g7975"
       inkscape:export-xdpi="24.548237"
       inkscape:export-ydpi="24.548237">
      <path
         sodipodi:nodetypes="sscssscssscssscssscssscssscssscss"
         inkscape:connector-curvature="0"
         id="path7454-0-4"
         d="m 1073.0933,807.13341 c -34.2803,15.2164 -15.3848,-39.9553 -51.9796,-30.9469 -36.59491,9.0085 -28.41392,33.4247 -28.41392,33.4247 0,0 -5.2518,-29.0794 -41.92845,-32.2796 -38.83335,-3.3884 -31.75705,56.8934 -62.40059,51.8735 -45.95633,-7.5284 8.65533,-50.5771 -6.64707,-78.8107 -17.53795,-32.35826 -73.28599,31.8876 -73.28599,31.8876 0,0 42.78459,-46.23239 20.19728,-75.51301 -22.5873,-29.28062 -55.85229,27.4833 -72.28714,-5.70132 -16.43487,-33.18465 49.46789,-24.7106 39.872,-60.3513 -9.59586,-35.64069 -37.93938,-36.55929 -37.93938,-36.55929 0,0 34.43491,5.36589 40.06762,-31.91639 5.6327,-37.28227 -84.72002,-32.24878 -71.82356,-66.6994 12.89646,-34.45063 69.66135,26.8352 88.12208,-5.57668 18.46073,-32.41187 -25.31211,-67.08239 -25.31211,-67.08239 0,0 40.06413,35.2412 69.17015,11.77595 29.10601,-23.46523 -58.11513,-76.11513 -24.7025,-92.43879 33.41265,-16.32365 65.0033,74.57926 100.35982,64.18972 35.3565,-10.38952 33.95725,-65.97965 33.95725,-65.97965 0,0 -8.38803,67.17665 28.85419,70.74245 37.24222,3.5658 39.59042,-88.0395 73.78272,-73.74549 46.0475,19.25002 -23.7501,76.87771 2.7826,93.66698 31.2419,19.76919 53.4064,-11.06417 53.4064,-11.06417 0,0 -26.2674,25.90587 -4.7635,57.00642 21.5039,31.10053 60.5934,-35.55481 76.9829,-1.55208 16.3895,34.00275 -62.2894,27.48994 -52.0722,62.90425 10.0888,34.96936 88.6081,4.69614 38.8419,34.55587 0,0 -27.9888,-0.58564 -33.0301,36.70707 -5.0413,37.29273 101.0686,35.66763 88.7044,70.30683 -12.3641,34.63919 -95.5645,-27.3271 -113.6475,4.97906 -18.0829,32.30613 8.7628,50.12827 8.7628,50.12827 0,0 -28.6791,-18.99949 -57.7028,4.17179 -29.0236,23.1713 28.3525,42.6802 -5.9277,57.8967 z"
         inkscape:transform-center-y="1.4339472"
         inkscape:transform-center-x="-1.7075372"
         style="opacity:0.86400003;fill:#102f91;fill-opacity:1;fill-rule:evenodd;stroke:none;stroke-width:5.26499987;stroke-linecap:round;stroke-linejoin:round;stroke-miterlimit:4;stroke-dasharray:none;stroke-dashoffset:0;stroke-opacity:1" />
      <flowRoot
         transform="matrix(4.4145928,0,0,4.4145928,9716.8209,-6391.1829)"
         style="font-style:normal;font-weight:normal;font-size:40px;line-height:1.25;font-family:sans-serif;letter-spacing:0px;word-spacing:0px;fill:#000000;fill-opacity:1;stroke:none"
         id="flowRoot7498-0-7"
         xml:space="preserve"><flowRegion
           id="flowRegion7500-3-2"><rect
             y="1558.9055"
             x="-2004.1427"
             height="347.49246"
             width="323.24881"
             id="rect7502-3-8" /></flowRegion><flowPara
           id="flowPara7504-2-1">50</flowPara></flowRoot>    </g>
    <g
       id="g7961"
       inkscape:export-xdpi="24.548237"
       inkscape:export-ydpi="24.548237">
      <path
         sodipodi:nodetypes="sscssscssscssscssscssscssscssscss"
         inkscape:connector-curvature="0"
         id="path7454-0-8"
         d="m -122.5106,1060.7126 c -34.28029,15.2164 -15.38481,-39.9553 -51.97965,-30.9469 -36.59485,9.0085 -28.41389,33.4247 -28.41389,33.4247 0,0 -5.25181,-29.0794 -41.92842,-32.2796 -38.83335,-3.3884 -31.75705,56.8934 -62.40059,51.8735 -45.95633,-7.5284 8.65533,-50.5771 -6.64707,-78.8107 -17.53795,-32.35826 -73.28599,31.8876 -73.28599,31.8876 0,0 42.78459,-46.23239 20.19728,-75.51301 -22.5873,-29.28062 -55.85229,27.4833 -72.28714,-5.70132 -16.43487,-33.18465 49.46789,-24.7106 39.872,-60.3513 -9.59586,-35.64069 -37.93938,-36.55929 -37.93938,-36.55929 0,0 34.43491,5.36589 40.06762,-31.91639 5.6327,-37.28227 -84.72002,-32.24878 -71.82356,-66.6994 12.89646,-34.45063 69.66135,26.8352 88.12208,-5.57668 18.46073,-32.41187 -25.31211,-67.08239 -25.31211,-67.08239 0,0 40.06413,35.2412 69.17015,11.77595 29.10601,-23.46523 -58.11513,-76.11513 -24.7025,-92.43879 33.41265,-16.32365 65.0033,74.57926 100.35982,64.18972 35.3565,-10.38952 33.95725,-65.97965 33.95725,-65.97965 0,0 -8.38803,67.17665 28.85421,70.74245 37.24222,3.5658 39.59037,-88.0395 73.78272,-73.74549 46.047467,19.25002 -23.75009,76.87771 2.78259,93.66698 31.241917,19.76919 53.406387,-11.06417 53.406387,-11.06417 0,0 -26.26744,25.90587 -4.76351,57.00642 21.50393,31.10053 60.5934,-35.55481 76.9828998,-1.55208 16.3894902,34.00275 -62.2893898,27.48994 -52.0721898,62.90425 10.08883,34.96936 88.60811,4.69614 38.8418898,34.55587 0,0 -27.9888398,-0.58564 -33.0301298,36.70707 -5.04127,37.29273 101.06858,35.66763 88.70442,70.30683 -12.36414,34.63919 -95.56451,-27.3271 -113.64746,4.97906 -18.08295,32.30613 8.76279,50.12827 8.76279,50.12827 0,0 -28.67914,-18.99949 -57.702797,4.17179 -29.02363,23.1713 28.352507,42.6802 -5.92772,57.8967 z"
         inkscape:transform-center-y="1.4339472"
         inkscape:transform-center-x="-1.7075372"
         style="opacity:0.86400003;fill:#102f91;fill-opacity:1;fill-rule:evenodd;stroke:none;stroke-width:5.26499987;stroke-linecap:round;stroke-linejoin:round;stroke-miterlimit:4;stroke-dasharray:none;stroke-dashoffset:0;stroke-opacity:1" />
      <flowRoot
         transform="matrix(4.4145928,0,0,4.4145928,8522.0792,-6137.5606)"
         style="font-style:normal;font-weight:normal;font-size:40px;line-height:1.25;font-family:sans-serif;letter-spacing:0px;word-spacing:0px;fill:#000000;fill-opacity:1;stroke:none"
         id="flowRoot7498-0-7-6"
         xml:space="preserve"><flowRegion
           id="flowRegion7500-3-2-0"><rect
             y="1558.9055"
             x="-2004.1427"
             height="347.49246"
             width="323.24881"
             id="rect7502-3-8-7" /></flowRegion><flowPara
           id="flowPara7504-2-1-0">30</flowPara></flowRoot>    </g>
    <g
       id="g7968"
       inkscape:export-xdpi="24.548237"
       inkscape:export-ydpi="24.548237">
      <path
         sodipodi:nodetypes="sscssscssscssscssscssscssscssscss"
         inkscape:connector-curvature="0"
         id="path7454-0-6"
         d="m 542.72749,1459.8555 c -34.28029,15.2164 -15.38481,-39.9553 -51.97965,-30.9469 -36.59485,9.0085 -28.41389,33.4247 -28.41389,33.4247 0,0 -5.25181,-29.0794 -41.92842,-32.2796 -38.83335,-3.3884 -31.75705,56.8934 -62.40059,51.8735 -45.95633,-7.5284 8.65533,-50.5771 -6.64707,-78.8107 -17.53795,-32.3583 -73.28599,31.8876 -73.28599,31.8876 0,0 42.78459,-46.2324 20.19728,-75.5131 -22.5873,-29.2806 -55.85229,27.4833 -72.28714,-5.7013 -16.43487,-33.1846 49.46789,-24.7106 39.872,-60.3513 -9.59586,-35.6407 -37.93938,-36.5593 -37.93938,-36.5593 0,0 34.43491,5.3659 40.06762,-31.9164 5.6327,-37.2822 -84.72002,-32.2487 -71.82356,-66.6994 12.89646,-34.4506 69.66135,26.8352 88.12208,-5.5766 18.46073,-32.4119 -25.31211,-67.0824 -25.31211,-67.0824 0,0 40.06413,35.2412 69.17015,11.7759 29.10601,-23.4652 -58.11513,-76.1151 -24.7025,-92.4388 33.41265,-16.32361 65.0033,74.5793 100.35982,64.1898 35.3565,-10.3896 33.95725,-65.9797 33.95725,-65.9797 0,0 -8.38803,67.1767 28.85421,70.7425 37.24222,3.5658 39.59037,-88.03954 73.78272,-73.7455 46.04747,19.25 -23.75009,76.8777 2.78259,93.6669 31.24192,19.7692 53.40639,-11.0641 53.40639,-11.0641 0,0 -26.26744,25.9058 -4.76351,57.0064 21.50393,31.1005 60.5934,-35.5548 76.9829,-1.5521 16.38949,34.0028 -62.28939,27.49 -52.07219,62.9043 10.08883,34.9693 88.60811,4.6961 38.84189,34.5558 0,0 -27.98884,-0.5856 -33.03013,36.7071 -5.04127,37.2927 101.06858,35.6676 88.70442,70.3068 -12.36414,34.6392 -95.56451,-27.3271 -113.64746,4.9791 -18.08295,32.3061 8.76279,50.1283 8.76279,50.1283 0,0 -28.67914,-18.9995 -57.7028,4.1718 -29.02363,23.1713 28.35251,42.6802 -5.92772,57.8967 z"
         inkscape:transform-center-y="1.4339472"
         inkscape:transform-center-x="-1.7075372"
         style="opacity:0.86400003;fill:#102f91;fill-opacity:1;fill-rule:evenodd;stroke:none;stroke-width:5.26499987;stroke-linecap:round;stroke-linejoin:round;stroke-miterlimit:4;stroke-dasharray:none;stroke-dashoffset:0;stroke-opacity:1" />
      <flowRoot
         transform="matrix(4.4145928,0,0,4.4145928,9191.1973,-5738.4608)"
         style="font-style:normal;font-weight:normal;font-size:40px;line-height:1.25;font-family:sans-serif;letter-spacing:0px;word-spacing:0px;fill:#000000;fill-opacity:1;stroke:none"
         id="flowRoot7498-0-7-9"
         xml:space="preserve"><flowRegion
           id="flowRegion7500-3-2-1"><rect
             y="1558.9055"
             x="-2004.1427"
             height="347.49246"
             width="323.24881"
             id="rect7502-3-8-8" /></flowRegion><flowPara
           id="flowPara7504-2-1-3">40</flowPara></flowRoot>    </g>
  </g>
</svg>
